<svg width="28" height="28" viewBox="0 0 28 28" fill="none" xmlns="http://www.w3.org/2000/svg">
<rect width="28" height="28" fill="#1E1E1E"/>
<g clip-path="url(#clip0_1_25)">
<rect width="1512" height="1963" transform="translate(-456 -343)" fill="#F1F4F8"/>
<rect x="-84.5" y="-124.5" width="769" height="167" rx="23.5" fill="white"/>
<rect x="-61" y="-61" width="80" height="80" rx="20" fill="#E2E6EB"/>
<rect width="28" height="28" rx="10" fill="#2153FF"/>
<mask id="path-4-inside-1_1_25" fill="white">
<path d="M18.2402 21.1665H9.7269C8.71357 21.1665 7.7869 20.6531 7.25357 19.7865C6.72024 18.9198 6.67357 17.8665 7.1269 16.9531L8.27357 14.6531C8.6469 13.9065 9.2469 13.4398 9.92024 13.3665C10.5936 13.2931 11.2802 13.6265 11.8002 14.2731L11.9469 14.4598C12.2402 14.8198 12.5802 15.0131 12.9136 14.9798C13.2469 14.9531 13.5536 14.7131 13.7802 14.3065L15.0402 12.0331C15.5602 11.0931 16.2536 10.6065 17.0069 10.6398C17.7536 10.6798 18.3936 11.2398 18.8202 12.2265L20.9069 17.0998C21.2936 17.9998 21.2002 19.0265 20.6602 19.8465C20.1269 20.6798 19.2202 21.1665 18.2402 21.1665ZM10.1069 14.3665C10.0802 14.3665 10.0536 14.3665 10.0269 14.3731C9.69357 14.4065 9.3869 14.6731 9.1669 15.1065L8.02024 17.4065C7.72024 17.9998 7.75357 18.6998 8.10024 19.2665C8.4469 19.8331 9.06024 20.1731 9.7269 20.1731H18.2336C18.8869 20.1731 19.4669 19.8598 19.8269 19.3131C20.1869 18.7665 20.2469 18.1131 19.9869 17.5131L17.9002 12.6398C17.6469 12.0398 17.2936 11.6731 16.9536 11.6598C16.6402 11.6398 16.2336 11.9731 15.9136 12.5398L14.6536 14.8131C14.2669 15.5065 13.6602 15.9398 13.0002 15.9998C12.3402 16.0531 11.6669 15.7331 11.1669 15.1065L11.0202 14.9198C10.7402 14.5531 10.4202 14.3665 10.1069 14.3665Z"/>
</mask>
<path d="M18.2402 21.1665H9.7269C8.71357 21.1665 7.7869 20.6531 7.25357 19.7865C6.72024 18.9198 6.67357 17.8665 7.1269 16.9531L8.27357 14.6531C8.6469 13.9065 9.2469 13.4398 9.92024 13.3665C10.5936 13.2931 11.2802 13.6265 11.8002 14.2731L11.9469 14.4598C12.2402 14.8198 12.5802 15.0131 12.9136 14.9798C13.2469 14.9531 13.5536 14.7131 13.7802 14.3065L15.0402 12.0331C15.5602 11.0931 16.2536 10.6065 17.0069 10.6398C17.7536 10.6798 18.3936 11.2398 18.8202 12.2265L20.9069 17.0998C21.2936 17.9998 21.2002 19.0265 20.6602 19.8465C20.1269 20.6798 19.2202 21.1665 18.2402 21.1665ZM10.1069 14.3665C10.0802 14.3665 10.0536 14.3665 10.0269 14.3731C9.69357 14.4065 9.3869 14.6731 9.1669 15.1065L8.02024 17.4065C7.72024 17.9998 7.75357 18.6998 8.10024 19.2665C8.4469 19.8331 9.06024 20.1731 9.7269 20.1731H18.2336C18.8869 20.1731 19.4669 19.8598 19.8269 19.3131C20.1869 18.7665 20.2469 18.1131 19.9869 17.5131L17.9002 12.6398C17.6469 12.0398 17.2936 11.6731 16.9536 11.6598C16.6402 11.6398 16.2336 11.9731 15.9136 12.5398L14.6536 14.8131C14.2669 15.5065 13.6602 15.9398 13.0002 15.9998C12.3402 16.0531 11.6669 15.7331 11.1669 15.1065L11.0202 14.9198C10.7402 14.5531 10.4202 14.3665 10.1069 14.3665Z" fill="#292D32" stroke="white" stroke-width="2" mask="url(#path-4-inside-1_1_25)"/>
<mask id="path-5-inside-2_1_25" fill="white">
<path d="M10.6465 11.8335C9.27315 11.8335 8.14648 10.7135 8.14648 9.3335C8.14648 7.9535 9.26648 6.8335 10.6465 6.8335C12.0265 6.8335 13.1465 7.9535 13.1465 9.3335C13.1465 10.7135 12.0265 11.8335 10.6465 11.8335ZM10.6465 7.8335C9.81982 7.8335 9.14648 8.50683 9.14648 9.3335C9.14648 10.1602 9.81982 10.8335 10.6465 10.8335C11.4732 10.8335 12.1465 10.1602 12.1465 9.3335C12.1465 8.50683 11.4732 7.8335 10.6465 7.8335Z"/>
</mask>
<path d="M10.6465 11.8335C9.27315 11.8335 8.14648 10.7135 8.14648 9.3335C8.14648 7.9535 9.26648 6.8335 10.6465 6.8335C12.0265 6.8335 13.1465 7.9535 13.1465 9.3335C13.1465 10.7135 12.0265 11.8335 10.6465 11.8335ZM10.6465 7.8335C9.81982 7.8335 9.14648 8.50683 9.14648 9.3335C9.14648 10.1602 9.81982 10.8335 10.6465 10.8335C11.4732 10.8335 12.1465 10.1602 12.1465 9.3335C12.1465 8.50683 11.4732 7.8335 10.6465 7.8335Z" fill="#292D32" stroke="white" stroke-width="2" mask="url(#path-5-inside-2_1_25)"/>
<rect x="-84.5" y="-124.5" width="769" height="167" rx="23.5" stroke="#E2E6EB"/>
</g>
<defs>
<clipPath id="clip0_1_25">
<rect width="1512" height="1963" fill="white" transform="translate(-456 -343)"/>
</clipPath>
</defs>
</svg>
