<svg width="16" height="16" viewBox="0 0 16 16" fill="none" xmlns="http://www.w3.org/2000/svg">
<path d="M8.00065 15.1668C4.04732 15.1668 0.833984 11.9535 0.833984 8.00016C0.833984 4.04683 4.04732 0.833496 8.00065 0.833496C11.954 0.833496 15.1673 4.04683 15.1673 8.00016C15.1673 11.9535 11.954 15.1668 8.00065 15.1668ZM8.00065 1.8335C4.60065 1.8335 1.83398 4.60016 1.83398 8.00016C1.83398 11.4002 4.60065 14.1668 8.00065 14.1668C11.4007 14.1668 14.1673 11.4002 14.1673 8.00016C14.1673 4.60016 11.4007 1.8335 8.00065 1.8335Z" fill="#793EF5"/>
<path d="M10.6673 8.5H5.33398C5.06065 8.5 4.83398 8.27333 4.83398 8C4.83398 7.72667 5.06065 7.5 5.33398 7.5H10.6673C10.9407 7.5 11.1673 7.72667 11.1673 8C11.1673 8.27333 10.9407 8.5 10.6673 8.5Z" fill="#793EF5"/>
<path d="M8 11.1668C7.72667 11.1668 7.5 10.9402 7.5 10.6668V5.3335C7.5 5.06016 7.72667 4.8335 8 4.8335C8.27333 4.8335 8.5 5.06016 8.5 5.3335V10.6668C8.5 10.9402 8.27333 11.1668 8 11.1668Z" fill="#793EF5"/>
</svg>
