<svg width="20" height="20" viewBox="0 0 20 20" fill="none" xmlns="http://www.w3.org/2000/svg">
<g opacity="0.5">
<path d="M2.48096 4.85603L2.48119 4.85601L4.18119 4.68935L4.1829 4.68917C8.57083 4.24378 13.0263 4.41608 17.5086 4.856L17.5089 4.85603C17.5717 4.86216 17.625 4.92235 17.6181 4.99318L17.618 4.99317L17.6172 5.00338C17.613 5.05834 17.5642 5.10839 17.4991 5.10839H17.499H17.4989H17.4988H17.4987H17.4986H17.4985H17.4984H17.4983H17.4982H17.4981H17.498H17.4979H17.4978H17.4977H17.4976H17.4975H17.4974H17.4973H17.4972H17.4971H17.497H17.4969H17.4968H17.4967H17.4966H17.4965H17.4964H17.4963H17.4962H17.4961H17.496H17.4959H17.4958H17.4956H17.4955H17.4954H17.4953H17.4952H17.4951H17.495H17.4949H17.4948H17.4947H17.4946H17.4945H17.4944H17.4943H17.4942H17.4941H17.494H17.4939H17.4937H17.4936H17.4935H17.4934H17.4933H17.4932H17.4931H17.493H17.4929H17.4928H17.4927H17.4926H17.4925H17.4923H17.4922H17.4921H17.492H17.4919H17.4918H17.4917H17.4916H17.4915H17.4914H17.4912H17.4911H17.491H17.4909H17.4908H17.4907H17.4906H17.4905H17.4903H17.4902H17.4901H17.49H17.4899H17.4898H17.4897H17.4896H17.4894H17.4893H17.4892H17.4891H17.489H17.4889H17.4888H17.4886H17.4885H17.4884H17.4883H17.4882H17.4881H17.488H17.4878H17.4877H17.4876H17.4875H17.4874H17.4873H17.4871H17.487H17.4869H17.4868H17.4867H17.4866H17.4864H17.4863H17.4862H17.4861H17.486H17.4859H17.4857H17.4856H17.4855H17.4854H17.4853H17.4851H17.485H17.4849H17.4848H17.4847H17.4845H17.4844H17.4843H17.4842H17.4841H17.4839H17.4838H17.4837H17.4836H17.4835H17.4833H17.4832H17.4831H17.483H17.4829H17.4827H17.4826H17.4825H17.4824H17.4822H17.4821H17.482H17.4819H17.4818H17.4816H17.4815H17.4814H17.4813H17.4811H17.481H17.4809H17.4808H17.4806H17.4805H17.4804H17.4803H17.4801H17.48H17.4799H17.4798H17.4796H17.4795H17.4794H17.4793H17.4791H17.479H17.4789H17.4788H17.4786H17.4785H17.4784H17.4783H17.4781H17.478H17.4779H17.4778H17.4776H17.4775H17.4774H17.4773H17.4771H17.477H17.4769H17.4767H17.4766H17.4765H17.4764H17.4762H17.4761H17.476H17.4758H17.4757H17.4756H17.4755H17.4753H17.4752H17.4751H17.4749H17.4748H17.4747H17.4745H17.4744H17.4743H17.4742H17.474H17.4739H17.4738H17.4736H17.4735H17.4734H17.4732H17.4731H17.473H17.4729H17.4727H17.4726H17.4725H17.4723H17.4722H17.4721H17.4719H17.4718H17.4717H17.4715H17.4714H17.4713H17.4711H17.471H17.4709H17.4707H17.4706H17.4705H17.4703H17.4702H17.4701H17.4699H17.4698H17.4697H17.4695H17.4694H17.4693H17.4691H17.469H17.4689H17.4687H17.4686H17.4685H17.4683H17.4682H17.4681H17.4679H17.4678H17.4677H17.4675H17.4674H17.4672H17.4671H17.467H17.4668H17.4667H17.4666H17.4664H17.4663H17.4662H17.466H17.4659H17.4658H17.4656H17.4655H17.4653H17.4652H17.4651H17.4649H17.4648H17.4647H17.4645H17.4644H17.4642H17.4641H17.464H17.4638H17.4637H17.4636H17.4634H17.4633H17.4631H17.463H17.4629H17.4627H17.4626H17.4625H17.4623H17.4622H17.462H17.4619H17.4618H17.4616H17.4615H17.4613H17.4612H17.4611H17.4609H17.4608H17.4607H17.4605H17.4604H17.4602H17.4601H17.46H17.4598H17.4597H17.4595H17.4594H17.4593H17.4591H17.459H17.4588H17.4587H17.4586H17.4584H17.4583H17.4581H17.458H17.4579H17.4577H17.4576H17.4574H17.4574C13.0385 4.66671 8.61105 4.4989 4.21614 4.94419C4.21587 4.94422 4.2156 4.94425 4.21533 4.94428L2.51834 5.11065C2.51819 5.11066 2.51804 5.11068 2.51789 5.11069C2.43772 5.1181 2.37846 5.06403 2.37182 4.99432C2.36451 4.91759 2.41487 4.86248 2.48096 4.85603Z" fill="#292D32" stroke="#1E1E1E"/>
<path d="M7.06521 4.26643C7.06511 4.26643 7.06502 4.26643 7.06492 4.26643L7.06051 4.26566C7.03138 4.26056 7.00191 4.24291 6.98058 4.21296C6.95948 4.18333 6.9541 4.15282 6.9585 4.12769L6.95908 4.12431L7.14241 3.03265L7.14251 3.03204C7.21257 2.6117 7.2795 2.26908 7.48901 2.01024C7.67067 1.78579 8.03545 1.5415 8.90765 1.5415H11.091C11.9621 1.5415 12.3296 1.79291 12.5134 2.02378C12.725 2.28954 12.7903 2.63643 12.8558 3.03863L12.8558 3.03863L12.8563 3.0416L13.0397 4.12493L13.0398 4.12565C13.0455 4.15907 13.0374 4.19206 13.0181 4.21921C12.9986 4.24653 12.9736 4.26018 12.9501 4.2637L12.9501 4.2636L12.9402 4.2653C12.9068 4.27101 12.8738 4.2629 12.8466 4.24357C12.8193 4.22412 12.8056 4.19914 12.8021 4.17567L12.8022 4.17565L12.8006 4.16641L12.6177 3.0851L12.6153 3.07079C12.5887 2.90477 12.5612 2.73387 12.5203 2.5893C12.4765 2.43408 12.4026 2.25138 12.2456 2.10066C12.0859 1.9473 11.8934 1.87742 11.7099 1.84224C11.5326 1.80826 11.3259 1.79984 11.0993 1.79984H8.91598C8.6922 1.79984 8.48792 1.80657 8.31391 1.83725C8.1343 1.86893 7.93992 1.93375 7.77743 2.08584C7.61731 2.23571 7.54297 2.41962 7.49891 2.57373C7.45854 2.71496 7.43014 2.88374 7.40217 3.04995C7.40087 3.05767 7.39957 3.06537 7.39827 3.07307L7.20696 4.1544L7.20691 4.15439L7.20576 4.16147C7.19594 4.22205 7.14318 4.2665 7.08265 4.2665L7.06521 4.26643Z" fill="#292D32" stroke="#1E1E1E"/>
<path d="M4.1666 7.62594L4.16662 7.62594L4.16631 7.62166C4.16427 7.59376 4.17339 7.56342 4.19729 7.53624C4.22013 7.51027 4.25026 7.49454 4.28153 7.49073C4.36048 7.4901 4.41347 7.54526 4.41887 7.60997L4.96035 15.9987L4.96033 15.9987L4.96061 16.0026L4.9623 16.0259C4.98388 16.3244 5.00499 16.6165 5.05389 16.8683C5.1051 17.132 5.19581 17.4062 5.39426 17.6377C5.79512 18.1054 6.46507 18.2082 7.32597 18.2082H12.676C13.54 18.2082 14.2128 18.1057 14.6139 17.6377C14.813 17.4055 14.9031 17.1304 14.9532 16.8661C15.0013 16.6123 15.0206 16.318 15.0404 16.0175L15.0416 15.9993L15.0416 15.9987L15.5831 7.61005C15.5883 7.54867 15.6459 7.49021 15.7206 7.49072C15.7952 7.49922 15.84 7.56082 15.8356 7.62253L15.8353 7.62594L15.2939 16.0147C15.2938 16.0152 15.2938 16.0157 15.2938 16.0162C15.2459 16.6948 15.1916 17.2707 14.884 17.7004C14.6091 18.0844 14.0413 18.4582 12.676 18.4582H7.32597C5.96067 18.4582 5.3928 18.0844 5.11795 17.7004C4.81033 17.2707 4.75605 16.6948 4.70817 16.0161C4.70814 16.0156 4.7081 16.0151 4.70807 16.0147L4.1666 7.62594Z" fill="#292D32" stroke="#1E1E1E"/>
<path d="M11.3824 13.875H8.60742C8.57727 13.875 8.54599 13.8627 8.52035 13.8371C8.49471 13.8114 8.48242 13.7801 8.48242 13.75C8.48242 13.7199 8.49471 13.6886 8.52035 13.6629C8.54599 13.6373 8.57727 13.625 8.60742 13.625H11.3824C11.4126 13.625 11.4438 13.6373 11.4695 13.6629C11.4951 13.6886 11.5074 13.7199 11.5074 13.75C11.5074 13.7801 11.4951 13.8114 11.4695 13.8371C11.4438 13.8627 11.4126 13.875 11.3824 13.875Z" fill="#292D32" stroke="#1E1E1E"/>
<path d="M12.0827 11.0415H7.91602C7.57435 11.0415 7.29102 10.7582 7.29102 10.4165C7.29102 10.0748 7.57435 9.7915 7.91602 9.7915H12.0827C12.4243 9.7915 12.7077 10.0748 12.7077 10.4165C12.7077 10.7582 12.4243 11.0415 12.0827 11.0415Z" fill="#292D32"/>
</g>
</svg>
