<svg width="16" height="16" viewBox="0 0 16 16" fill="none" xmlns="http://www.w3.org/2000/svg">
<path d="M5.55277 8.7687L5.55271 8.76875L5.55831 8.77562C5.90111 9.19634 6.38731 9.53257 6.95737 9.4778C7.51715 9.43092 7.94479 9.03647 8.216 8.54989L8.21658 8.54884L9.47658 6.27551L9.47678 6.27515C9.94712 5.42491 10.4933 5.11865 10.9815 5.1392C11.4591 5.16586 11.9719 5.52699 12.36 6.4242C12.3601 6.42443 12.3602 6.42467 12.3603 6.42491L14.4463 11.2966L14.4465 11.2972C14.5359 11.5051 14.5943 11.7213 14.6223 11.9397C14.5924 11.7291 14.5335 11.5196 14.4452 11.3155C14.445 11.3151 14.4449 11.3147 14.4447 11.3143L12.3599 6.4453C12.3597 6.44489 12.3595 6.44447 12.3594 6.44406C12.2164 6.1058 12.0348 5.80699 11.8182 5.58252C11.6065 5.36328 11.3213 5.17591 10.9782 5.16043C10.6403 5.14113 10.3386 5.30812 10.1138 5.49669C9.87656 5.69566 9.65916 5.97174 9.47722 6.29393L9.47527 6.2974L8.21591 8.56959C8.2158 8.56978 8.2157 8.56997 8.21559 8.57016C7.89251 9.14912 7.41834 9.45868 6.95647 9.50161C6.49397 9.53804 5.97401 9.31677 5.55791 8.79605L5.41442 8.61343C5.07963 8.17624 4.62927 7.86646 4.10593 7.86646C4.10477 7.86646 4.10331 7.86644 4.10156 7.86643C4.08096 7.86628 4.02014 7.86585 3.94861 7.87867C3.38609 7.94742 2.9723 8.38334 2.72009 8.88011L2.72008 8.8801L2.71845 8.88337L1.57237 11.1822C1.53545 11.2553 1.50255 11.3297 1.47364 11.4051C1.50286 11.3277 1.53618 11.2512 1.5736 11.1758C1.57367 11.1757 1.57373 11.1755 1.57379 11.1754L2.71981 8.87673C2.71985 8.87664 2.71989 8.87655 2.71994 8.87647C3.03681 8.24289 3.50844 7.91416 3.9734 7.86352C4.43539 7.8132 4.96632 8.03631 5.40791 8.58433L5.55277 8.7687Z" fill="#292D32" stroke="white"/>
<path d="M4.64648 1.3335C3.54586 1.3335 2.65173 2.2244 2.64651 3.32381C2.65174 2.22544 3.54691 1.3335 4.64648 1.3335ZM4.64648 1.3335C5.75034 1.3335 6.64648 2.22964 6.64648 3.3335M4.64648 1.3335C5.74929 1.3335 6.64648 2.23069 6.64648 3.3335M6.64648 3.3335C6.64648 4.43735 5.75034 5.3335 4.64648 5.3335C5.74929 5.3335 6.64648 4.43631 6.64648 3.3335Z" fill="#292D32" stroke="white"/>
</svg>
