<svg width="16" height="16" viewBox="0 0 16 16" fill="none" xmlns="http://www.w3.org/2000/svg">
<path d="M7.99967 15.1668C4.04634 15.1668 0.833008 11.9535 0.833008 8.00016C0.833008 4.04683 4.04634 0.833496 7.99967 0.833496C11.953 0.833496 15.1663 4.04683 15.1663 8.00016C15.1663 11.9535 11.953 15.1668 7.99967 15.1668ZM7.99967 1.8335C4.59967 1.8335 1.83301 4.60016 1.83301 8.00016C1.83301 11.4002 4.59967 14.1668 7.99967 14.1668C11.3997 14.1668 14.1663 11.4002 14.1663 8.00016C14.1663 4.60016 11.3997 1.8335 7.99967 1.8335Z" fill="#793EF5"/>
<path d="M10.6663 8.5H5.33301C5.05967 8.5 4.83301 8.27333 4.83301 8C4.83301 7.72667 5.05967 7.5 5.33301 7.5H10.6663C10.9397 7.5 11.1663 7.72667 11.1663 8C11.1663 8.27333 10.9397 8.5 10.6663 8.5Z" fill="#793EF5"/>
<path d="M8 11.1668C7.72667 11.1668 7.5 10.9402 7.5 10.6668V5.3335C7.5 5.06016 7.72667 4.8335 8 4.8335C8.27333 4.8335 8.5 5.06016 8.5 5.3335V10.6668C8.5 10.9402 8.27333 11.1668 8 11.1668Z" fill="#793EF5"/>
</svg>
