<svg width="20" height="20" viewBox="0 0 20 20" fill="none" xmlns="http://www.w3.org/2000/svg">
<g opacity="0.5">
<path d="M9.24935 18.4582H5.74935C4.18263 18.4582 3.1628 18.1083 2.52686 17.4723C1.89092 16.8364 1.54102 15.8166 1.54102 14.2498V10.7498C1.54102 9.18311 1.89092 8.16329 2.52686 7.52735C3.1628 6.8914 4.18263 6.5415 5.74935 6.5415H9.24935C10.8161 6.5415 11.8359 6.8914 12.4718 7.52735C13.1078 8.16329 13.4577 9.18311 13.4577 10.7498V14.2498C13.4577 15.8166 13.1078 16.8364 12.4718 17.4723C11.8359 18.1083 10.8161 18.4582 9.24935 18.4582ZM5.74935 6.7915C4.42814 6.7915 3.38713 7.00912 2.69788 7.69837C2.00863 8.38762 1.79102 9.42862 1.79102 10.7498V14.2498C1.79102 15.5711 2.00863 16.6121 2.69788 17.3013C3.38713 17.9906 4.42814 18.2082 5.74935 18.2082H9.24935C10.5706 18.2082 11.6116 17.9906 12.3008 17.3013C12.9901 16.6121 13.2077 15.5711 13.2077 14.2498V10.7498C13.2077 9.42862 12.9901 8.38762 12.3008 7.69837C11.6116 7.00912 10.5706 6.7915 9.24935 6.7915H5.74935Z" fill="#292D32" stroke="#1E1E1E"/>
<path d="M13.4577 12.7082V13.2082H13.9577H14.2494C15.5706 13.2082 16.6116 12.9906 17.3008 12.3013C17.9901 11.6121 18.2077 10.5711 18.2077 9.24984V5.74984C18.2077 4.42862 17.9901 3.38762 17.3008 2.69837C16.6116 2.00912 15.5706 1.7915 14.2494 1.7915H10.7493C9.42814 1.7915 8.38713 2.00912 7.69788 2.69837C7.00863 3.38762 6.79102 4.42862 6.79102 5.74984V6.0415V6.5415H7.29102H9.24935C10.8161 6.5415 11.8359 6.8914 12.4718 7.52735C13.1078 8.16329 13.4577 9.18311 13.4577 10.7498V12.7082ZM14.2494 13.4582H13.3327C13.3025 13.4582 13.2713 13.4459 13.2456 13.4202C13.22 13.3946 13.2077 13.3633 13.2077 13.3332V10.7498C13.2077 9.42862 12.9901 8.38762 12.3008 7.69837C11.6116 7.00912 10.5706 6.7915 9.24935 6.7915H6.66602C6.63587 6.7915 6.60459 6.77922 6.57894 6.75358C6.5533 6.72793 6.54102 6.69665 6.54102 6.6665V5.74984C6.54102 4.18311 6.89092 3.16329 7.52686 2.52735C8.1628 1.8914 9.18263 1.5415 10.7493 1.5415H14.2494C15.8161 1.5415 16.8359 1.8914 17.4718 2.52735C18.1078 3.16329 18.4577 4.18311 18.4577 5.74984V9.24984C18.4577 10.8166 18.1078 11.8364 17.4718 12.4723C16.8359 13.1083 15.8161 13.4582 14.2494 13.4582Z" fill="#292D32" stroke="#1E1E1E"/>
</g>
</svg>
