<svg width="20" height="20" viewBox="0 0 20 20" fill="none" xmlns="http://www.w3.org/2000/svg">
<g opacity="0.5">
<path d="M12.4993 18.4582H7.49935C5.29424 18.4582 3.83969 17.9852 2.92686 17.0723C2.01403 16.1595 1.54102 14.7049 1.54102 12.4998V7.49984C1.54102 5.29473 2.01403 3.84018 2.92686 2.92735C3.83969 2.01452 5.29424 1.5415 7.49935 1.5415H9.16602C9.19616 1.5415 9.22744 1.55379 9.25309 1.57943C9.27873 1.60508 9.29102 1.63636 9.29102 1.6665C9.29102 1.69665 9.27873 1.72793 9.25309 1.75358C9.22744 1.77922 9.19616 1.7915 9.16602 1.7915H7.49935C5.54324 1.7915 4.06825 2.13424 3.101 3.10149C2.13375 4.06874 1.79102 5.54373 1.79102 7.49984V12.4998C1.79102 14.4559 2.13375 15.9309 3.101 16.8982C4.06825 17.8654 5.54324 18.2082 7.49935 18.2082H12.4993C14.4555 18.2082 15.9304 17.8654 16.8977 16.8982C17.8649 15.9309 18.2077 14.4559 18.2077 12.4998V10.8332C18.2077 10.803 18.22 10.7717 18.2456 10.7461C18.2713 10.7205 18.3025 10.7082 18.3327 10.7082C18.3628 10.7082 18.3941 10.7205 18.4198 10.7461C18.4454 10.7717 18.4577 10.803 18.4577 10.8332V12.4998C18.4577 14.7049 17.9847 16.1595 17.0718 17.0723C16.159 17.9852 14.7045 18.4582 12.4993 18.4582Z" fill="#292D32" stroke="#1E1E1E"/>
<path d="M5.77047 12.6724L5.77073 12.6705L6.12907 10.1622L6.1294 10.1598C6.18079 9.78723 6.44605 9.26162 6.71264 8.99502L13.2793 2.42836C14.0526 1.65503 14.7684 1.33105 15.4258 1.33105C16.0831 1.33105 16.7989 1.65503 17.5722 2.42836C18.4148 3.27094 18.7261 4.05752 18.6613 4.78582C18.601 5.38175 18.2803 6.01255 17.5742 6.71096L17.5722 6.71292L11.0055 13.2796C10.7389 13.5462 10.2133 13.8114 9.84077 13.8628L9.83838 13.8632L7.33005 14.2215L7.30902 14.2245L7.28833 14.2293C7.24401 14.2395 7.19169 14.2415 7.08409 14.2415C6.69829 14.2415 6.3606 14.1038 6.1188 13.8691C5.8379 13.5867 5.69883 13.1608 5.77047 12.6724ZM13.4571 2.60307L13.4555 2.60458L6.88887 9.17125L7.24242 9.5248L6.88887 9.17125C6.75588 9.30425 6.64215 9.48873 6.56151 9.64881C6.48082 9.80898 6.40126 10.0083 6.37324 10.1904L6.37321 10.1904L6.37245 10.1958L6.01411 12.7041L6.01378 12.7065C5.96775 13.0402 6.0232 13.421 6.2972 13.695C6.57121 13.969 6.952 14.0245 7.28574 13.9785L7.28814 13.9781L9.79647 13.6198L9.79647 13.6198L9.80179 13.619C9.98262 13.5912 10.1833 13.5124 10.3452 13.4314C10.5021 13.3529 10.691 13.2385 10.8249 13.0994L17.3876 6.53669C17.9598 5.96451 18.341 5.37706 18.3986 4.75424L18.3986 4.7541C18.469 3.99221 18.0606 3.27805 17.3899 2.59857L17.39 2.59856L17.3876 2.59625C16.6716 1.88025 15.9707 1.52607 15.2411 1.5936C14.5398 1.65851 13.9596 2.10482 13.4571 2.60307Z" fill="#292D32" stroke="#1E1E1E"/>
<path d="M16.5423 7.69173C16.5367 7.69173 16.5321 7.69131 16.5293 7.6909L16.5225 7.68863L16.511 7.68542C14.4877 7.11611 12.8774 5.50632 12.3075 3.48323C12.29 3.418 12.3238 3.34734 12.397 3.32244C12.4652 3.30655 12.5264 3.34547 12.5435 3.40764L12.5435 3.40764L12.5443 3.41063C13.0915 5.35319 14.6308 6.89247 16.5734 7.43967L16.5734 7.43968L16.5764 7.4405C16.6345 7.45647 16.6811 7.52467 16.6602 7.60082L16.6589 7.60545C16.6509 7.63586 16.6358 7.65498 16.6185 7.66787C16.5998 7.68183 16.5736 7.69173 16.5423 7.69173Z" fill="#292D32" stroke="#1E1E1E"/>
</g>
</svg>
