<svg width="24" height="24" viewBox="0 0 24 24" fill="none" xmlns="http://www.w3.org/2000/svg">
<path opacity="0.4" d="M12 22C17.5228 22 22 17.5228 22 12C22 6.47715 17.5228 2 12 2C6.47715 2 2 6.47715 2 12C2 17.5228 6.47715 22 12 22Z" fill="#793EF5"/>
<path d="M10.5804 15.5801C10.3804 15.5801 10.1904 15.5001 10.0504 15.3601L7.22043 12.5301C6.93043 12.2401 6.93043 11.7601 7.22043 11.4701C7.51043 11.1801 7.99043 11.1801 8.28043 11.4701L10.5804 13.7701L15.7204 8.6301C16.0104 8.3401 16.4904 8.3401 16.7804 8.6301C17.0704 8.9201 17.0704 9.4001 16.7804 9.6901L11.1104 15.3601C10.9704 15.5001 10.7804 15.5801 10.5804 15.5801Z" fill="#793EF5"/>
</svg>
